<svg width="30" height="25" viewBox="0 0 30 25" fill="none" xmlns="http://www.w3.org/2000/svg">
<path fill-rule="evenodd" clip-rule="evenodd" d="M0 2.08047C0 0.931468 0.9594 0 2.14286 0H27.8571C29.0406 0 30 0.931468 30 2.08047C30 3.22947 29.0406 4.16094 27.8571 4.16094H2.14286C0.9594 4.16094 0 3.22947 0 2.08047Z" fill="#4A5568"/>
<path fill-rule="evenodd" clip-rule="evenodd" d="M0 12.4828C0 11.3338 0.9594 10.4023 2.14286 10.4023H27.8571C29.0406 10.4023 30 11.3338 30 12.4828C30 13.6319 29.0406 14.5633 27.8571 14.5633H2.14286C0.9594 14.5633 0 13.6319 0 12.4828Z" fill="#4A5568"/>
<path fill-rule="evenodd" clip-rule="evenodd" d="M0 22.8852C0 21.7361 0.9594 20.8047 2.14286 20.8047H15C16.1835 20.8047 17.1429 21.7361 17.1429 22.8852C17.1429 24.0342 16.1835 24.9656 15 24.9656H2.14286C0.9594 24.9656 0 24.0342 0 22.8852Z" fill="#4A5568"/>
</svg>
