<svg width="30" height="27" viewBox="0 0 30 27" fill="none" xmlns="http://www.w3.org/2000/svg">
<path d="M28.7417 6.20834C28.4897 5.77174 28.1289 5.40791 27.6944 5.15232C27.2599 4.89674 26.7665 4.75812 26.2625 4.75001H7.59585L6.75002 1.45418C6.66456 1.13602 6.4739 0.856177 6.20909 0.660217C5.94428 0.464258 5.62092 0.363731 5.29169 0.375008H2.37502C1.98825 0.375008 1.61731 0.528654 1.34382 0.802144C1.07033 1.07563 0.916687 1.44657 0.916687 1.83334C0.916687 2.22012 1.07033 2.59105 1.34382 2.86454C1.61731 3.13803 1.98825 3.29168 2.37502 3.29168H4.18335L8.20835 18.2542C8.29381 18.5723 8.48447 18.8522 8.74928 19.0481C9.01409 19.2441 9.33745 19.3446 9.66669 19.3333H22.7917C23.061 19.3325 23.3248 19.2572 23.5539 19.1156C23.783 18.974 23.9684 18.7718 24.0896 18.5313L28.8729 8.96459C29.0803 8.53003 29.1768 8.0509 29.1539 7.56996C29.131 7.08903 28.9894 6.62124 28.7417 6.20834Z" fill="#231F20"/>
<path d="M8.9375 26.625C10.1456 26.625 11.125 25.6456 11.125 24.4375C11.125 23.2294 10.1456 22.25 8.9375 22.25C7.72938 22.25 6.75 23.2294 6.75 24.4375C6.75 25.6456 7.72938 26.625 8.9375 26.625Z" fill="#231F20"/>
<path d="M23.5208 26.625C24.7289 26.625 25.7083 25.6456 25.7083 24.4375C25.7083 23.2294 24.7289 22.25 23.5208 22.25C22.3127 22.25 21.3333 23.2294 21.3333 24.4375C21.3333 25.6456 22.3127 26.625 23.5208 26.625Z" fill="#231F20"/>
</svg>
