<svg width="16" height="17" viewBox="0 0 16 17" fill="none" xmlns="http://www.w3.org/2000/svg">
<path d="M14.67 10.0047L15.9831 3.09848C16.0779 2.59984 15.7609 2.125 15.3331 2.125H4.42245L4.16783 0.637168C4.10439 0.266322 3.83139 0 3.5147 0H0.666667C0.298472 0 0 0.356768 0 0.796875V1.32812C0 1.76823 0.298472 2.125 0.666667 2.125H2.60786L4.5592 13.5281C4.09236 13.849 3.77778 14.4507 3.77778 15.1406C3.77778 16.1675 4.47422 17 5.33333 17C6.19245 17 6.88889 16.1675 6.88889 15.1406C6.88889 14.6202 6.70981 14.15 6.42156 13.8125H12.2451C11.9569 14.15 11.7778 14.6202 11.7778 15.1406C11.7778 16.1675 12.4742 17 13.3333 17C14.1924 17 14.8889 16.1675 14.8889 15.1406C14.8889 14.4044 14.5309 13.7683 14.0117 13.467L14.1649 12.661C14.2598 12.1623 13.9427 11.6875 13.5149 11.6875H6.05881L5.877 10.625H14.0199C14.3312 10.625 14.601 10.3675 14.67 10.0047Z" fill="black"/>
</svg>
