<svg width="15" height="15" viewBox="0 0 15 15" fill="none" xmlns="http://www.w3.org/2000/svg">
<rect width="15" height="15" rx="5" fill="#5E2590"/>
<path d="M11.4286 7.14286H8.85714V4.57143C8.85714 4.25589 8.60125 4 8.28571 4H7.71429C7.39875 4 7.14286 4.25589 7.14286 4.57143V7.14286H4.57143C4.25589 7.14286 4 7.39875 4 7.71429V8.28571C4 8.60125 4.25589 8.85714 4.57143 8.85714H7.14286V11.4286C7.14286 11.7441 7.39875 12 7.71429 12H8.28571C8.60125 12 8.85714 11.7441 8.85714 11.4286V8.85714H11.4286C11.7441 8.85714 12 8.60125 12 8.28571V7.71429C12 7.39875 11.7441 7.14286 11.4286 7.14286Z" fill="white"/>
</svg>
