<svg width="37" height="30" viewBox="0 0 37 30" fill="none" xmlns="http://www.w3.org/2000/svg">
<path d="M28.7872 13.2387L16.5378 0.823769C16.0174 0.296322 15.3116 3.90045e-06 14.5756 0L2.775 0C1.24239 0 0 1.25918 0 2.8125V14.7725C3.84844e-06 15.5185 0.292372 16.2338 0.812786 16.7613L13.0622 29.1762C14.1459 30.2746 15.9029 30.2746 16.9866 29.1762L28.7872 17.2162C29.8709 16.1178 29.8709 14.3371 28.7872 13.2387ZM6.475 9.375C4.94239 9.375 3.7 8.11582 3.7 6.5625C3.7 5.00918 4.94239 3.75 6.475 3.75C8.00761 3.75 9.25 5.00918 9.25 6.5625C9.25 8.11582 8.00761 9.375 6.475 9.375ZM36.1872 17.2162L24.3867 29.1762C23.303 30.2746 21.5459 30.2746 20.4622 29.1762L20.4414 29.1551L30.5042 18.9564C31.487 17.9603 32.0281 16.636 32.0281 15.2275C32.0281 13.8189 31.4869 12.4946 30.5042 11.4986L19.1589 0H21.9756C22.7116 3.90045e-06 23.4174 0.296322 23.9378 0.823769L36.1872 13.2387C37.2709 14.3371 37.2709 16.1178 36.1872 17.2162Z" fill="#5E2590"/>
</svg>
