<svg width="25" height="25" viewBox="0 0 25 25" fill="none" xmlns="http://www.w3.org/2000/svg">
<path d="M24.7569 10.0519H23.75V10H12.5V15H19.5644C18.5338 17.9106 15.7644 20 12.5 20C8.35812 20 5 16.6419 5 12.5C5 8.35812 8.35812 5 12.5 5C14.4119 5 16.1513 5.72125 17.4756 6.89937L21.0112 3.36375C18.7787 1.28312 15.7925 0 12.5 0C5.59688 0 0 5.59688 0 12.5C0 19.4031 5.59688 25 12.5 25C19.4031 25 25 19.4031 25 12.5C25 11.6619 24.9137 10.8438 24.7569 10.0519Z" fill="#FFC107"/>
<path d="M1.44125 6.68188L5.54812 9.69375C6.65937 6.9425 9.35062 5 12.5 5C14.4119 5 16.1512 5.72125 17.4756 6.89937L21.0112 3.36375C18.7787 1.28312 15.7925 0 12.5 0C7.69875 0 3.535 2.71062 1.44125 6.68188Z" fill="#FF3D00"/>
<path d="M12.5 25C15.7288 25 18.6625 23.7644 20.8806 21.755L17.0119 18.4813C15.7569 19.4319 14.1969 20 12.5 20C9.24875 20 6.48813 17.9269 5.44813 15.0338L1.37188 18.1744C3.44063 22.2225 7.64188 25 12.5 25Z" fill="#4CAF50"/>
<path d="M24.7569 10.0519H23.75V10H12.5V15H19.5644C19.0694 16.3981 18.17 17.6037 17.01 18.4819C17.0106 18.4812 17.0113 18.4812 17.0119 18.4806L20.8806 21.7544C20.6069 22.0031 25 18.75 25 12.5C25 11.6619 24.9137 10.8438 24.7569 10.0519Z" fill="#1976D2"/>
</svg>
