<svg width="28" height="28" viewBox="0 0 28 28" fill="none" xmlns="http://www.w3.org/2000/svg">
<path d="M28 13.9736C28.0143 21.6871 21.7237 27.9946 14.0101 28C10.6787 28.0024 7.61853 26.841 5.21375 24.9002C4.58844 24.3955 4.5417 23.4583 5.10994 22.8901L5.74598 22.2541C6.23197 21.7681 7.00784 21.7149 7.54628 22.1421C9.31801 23.548 11.5602 24.3871 14 24.3871C19.7414 24.3871 24.3871 19.7405 24.3871 14C24.3871 8.2586 19.7405 3.61291 14 3.61291C11.2444 3.61291 8.74158 4.68374 6.88325 6.43166L9.74839 9.29681C10.3174 9.86584 9.91442 10.8387 9.10976 10.8387H0.903225C0.404363 10.8387 0 10.4344 0 9.9355V1.72895C0 0.924284 0.972886 0.521275 1.54192 1.09025L4.32904 3.87739C6.84244 1.47542 10.2489 0 14 0C21.7231 0 27.9857 6.25372 28 13.9736ZM17.7872 18.421L18.3417 17.7081C18.8011 17.1174 18.6947 16.2662 18.1041 15.8068L15.8064 14.0197V8.12905C15.8064 7.38078 15.1999 6.77421 14.4516 6.77421H13.5484C12.8001 6.77421 12.1935 7.38078 12.1935 8.12905V15.7868L15.886 18.6587C16.4766 19.1181 17.3278 19.0117 17.7872 18.421Z" fill="white"/>
</svg>
