<svg width="32" height="28" viewBox="0 0 32 28" fill="none" xmlns="http://www.w3.org/2000/svg">
<path fill-rule="evenodd" clip-rule="evenodd" d="M14.0366 0.722141C14.5884 0.256157 15.2914 0 16.0183 0C16.7453 0 17.4482 0.256157 18 0.722141L27.6435 8.86009L31.4288 11.8425C31.5849 11.9655 31.7149 12.1176 31.8113 12.2901C31.9077 12.4625 31.9687 12.652 31.9907 12.8477C32.0128 13.0433 31.9955 13.2414 31.9398 13.4305C31.8841 13.6195 31.7912 13.796 31.6662 13.9497C31.5413 14.1034 31.3869 14.2314 31.2117 14.3263C31.0366 14.4212 30.8441 14.4813 30.6454 14.503C30.4467 14.5247 30.2456 14.5077 30.0536 14.4528C29.8616 14.398 29.6824 14.3065 29.5263 14.1835L28.1945 13.1344V25.0026C28.1945 25.7976 27.8738 26.56 27.3029 27.1221C26.7321 27.6842 25.9578 28 25.1505 28H19.0624V20.5065C19.0624 19.7115 18.7417 18.9491 18.1708 18.387C17.5999 17.8249 16.8257 17.5091 16.0183 17.5091C15.211 17.5091 14.4367 17.8249 13.8659 18.387C13.295 18.9491 12.9743 19.7115 12.9743 20.5065V28H6.88619C6.07886 28 5.30459 27.6842 4.73372 27.1221C4.16285 26.56 3.84214 25.7976 3.84214 25.0026V13.1329L2.51037 14.182C2.35533 14.3123 2.17527 14.4107 1.98088 14.4712C1.78649 14.5317 1.58174 14.5532 1.37877 14.5343C1.1758 14.5154 0.978751 14.4565 0.799325 14.3612C0.619899 14.2659 0.46175 14.1361 0.334266 13.9794C0.206782 13.8227 0.112561 13.6424 0.0571961 13.4492C0.00183142 13.256 -0.0135486 13.0538 0.0119688 12.8547C0.0374862 12.6555 0.103381 12.4634 0.205742 12.2898C0.308102 12.1162 0.444843 11.9646 0.607846 11.844L4.39312 8.86159L14.0366 0.722141Z" fill="white"/>
</svg>
