<svg width="30" height="27" viewBox="0 0 30 27" fill="none" xmlns="http://www.w3.org/2000/svg">
<path fill-rule="evenodd" clip-rule="evenodd" d="M13.1594 0.687542C13.6767 0.243884 14.3357 0 15.0172 0C15.6987 0 16.3577 0.243884 16.875 0.687542L25.9158 8.43559L29.4645 11.2751C29.6108 11.3922 29.7327 11.537 29.8231 11.7012C29.9135 11.8654 29.9706 12.0458 29.9913 12.2321C30.012 12.4184 29.9957 12.607 29.9435 12.787C29.8914 12.967 29.8042 13.135 29.6871 13.2813C29.57 13.4277 29.4252 13.5495 29.261 13.6399C29.0968 13.7303 28.9164 13.7875 28.7301 13.8081C28.5438 13.8288 28.3553 13.8126 28.1752 13.7604C27.9952 13.7082 27.8272 13.621 27.6809 13.5039L26.4323 12.5051V23.8047C26.4323 24.5616 26.1317 25.2874 25.5965 25.8226C25.0613 26.3578 24.3354 26.6585 23.5786 26.6585H17.871V19.524C17.871 18.7671 17.5703 18.0412 17.0351 17.5061C16.4999 16.9709 15.774 16.6702 15.0172 16.6702C14.2603 16.6702 13.5344 16.9709 12.9992 17.5061C12.4641 18.0412 12.1634 18.7671 12.1634 19.524V26.6585H6.4558C5.69893 26.6585 4.97306 26.3578 4.43787 25.8226C3.90268 25.2874 3.60201 24.5616 3.60201 23.8047V12.5037L2.35348 13.5025C2.20812 13.6266 2.03932 13.7203 1.85708 13.7779C1.67484 13.8355 1.48288 13.8559 1.29259 13.8379C1.10231 13.8199 0.917579 13.7639 0.749367 13.6732C0.581155 13.5824 0.43289 13.4588 0.313374 13.3096C0.193858 13.1605 0.105526 12.9888 0.0536214 12.8049C0.00171696 12.6209 -0.0127018 12.4284 0.0112207 12.2388C0.0351433 12.0492 0.0969196 11.8663 0.192883 11.701C0.288846 11.5357 0.41704 11.3913 0.569856 11.2765L4.11855 8.43701L13.1594 0.687542Z" fill="#5E2590"/>
</svg>
