<svg width="18" height="18" viewBox="0 0 18 18" fill="none" xmlns="http://www.w3.org/2000/svg">
<path d="M6.55044 3.78347C5.73856 3.81505 5.00542 4.10469 4.61321 4.49698C4.43108 4.67916 4.13575 4.67916 3.95362 4.49703C3.77144 4.31494 3.77139 4.01961 3.95353 3.83743C4.55864 3.23222 5.54342 2.88913 6.51416 2.85135C7.49124 2.81334 8.55796 3.08087 9.30501 3.82806C9.48709 4.01019 9.48709 4.30552 9.30491 4.48765C9.12278 4.66979 8.82745 4.66974 8.64532 4.48761C8.13647 3.97862 7.35593 3.75213 6.55044 3.78347Z" fill="white"/>
<path fill-rule="evenodd" clip-rule="evenodd" d="M11.302 10.5783C12.1938 9.52266 12.7313 8.15804 12.7313 6.66791C12.7313 3.31924 10.0167 0.604599 6.66799 0.604599C3.31931 0.604599 0.604675 3.31924 0.604675 6.66791C0.604675 10.0166 3.31931 12.7312 6.66799 12.7312C8.15812 12.7312 9.52273 12.1937 10.5784 11.3019L10.3993 12.3321L13.9037 15.8365L15.8366 13.9036L12.3321 10.3992L11.302 10.5783ZM6.66799 11.332C9.24387 11.332 11.3321 9.24379 11.3321 6.66791C11.3321 4.09203 9.24387 2.00382 6.66799 2.00382C4.09211 2.00382 2.0039 4.09203 2.0039 6.66791C2.0039 9.24379 4.09211 11.332 6.66799 11.332Z" fill="white"/>
<path d="M14.5634 16.4962L16.4962 14.5633L17.1286 15.1956C17.4844 15.5515 17.4844 16.1284 17.1286 16.4842L16.4843 17.1285C16.1284 17.4843 15.5515 17.4843 15.1957 17.1285L14.5634 16.4962Z" fill="white"/>
</svg>
